<svg width="158" height="42" fill="none" xmlns="http://www.w3.org/2000/svg"><g clip-path="url(#clip0)" fill="#fff"><path d="M3.428 35.55c-.583 0-1.034.229-1.354.684-.32.453-.48 1.085-.48 1.896 0 1.69.612 2.533 1.834 2.533.513 0 1.135-.132 1.864-.398v1.346c-.6.26-1.27.389-2.009.389-1.062 0-1.875-.333-2.438-1C.282 40.33 0 39.37 0 38.12c0-.787.138-1.476.415-2.067.276-.594.673-1.048 1.19-1.362.519-.318 1.127-.477 1.823-.477.71 0 1.423.178 2.14.534l-.5 1.305a8.095 8.095 0 00-.825-.352c-.277-.1-.548-.15-.815-.15zm10.642 6.346h-1.548V35.66h-1.984v-1.336h5.517v1.336H14.07v6.237zm9.06-4.009h.51c.476 0 .832-.097 1.069-.29.236-.197.355-.482.355-.855 0-.376-.1-.654-.3-.834-.197-.18-.507-.27-.93-.27h-.704v2.249zm3.498-1.202c0 .815-.247 1.438-.74 1.87-.49.432-1.188.648-2.094.648h-.665v2.693H21.58v-7.573h2.334c.886 0 1.56.198 2.019.596.463.393.695.982.695 1.766zM39.04 38.1c0 1.253-.3 2.216-.9 2.89-.6.673-1.46 1.01-2.579 1.01-1.12 0-1.979-.337-2.578-1.01-.6-.674-.9-1.64-.9-2.901 0-1.26.3-2.222.9-2.886.603-.666 1.466-1 2.588-1 1.123 0 1.981.336 2.574 1.006.596.67.895 1.633.895 2.89zm-5.333 0c0 .845.155 1.483.465 1.91.31.429.773.643 1.39.643 1.235 0 1.853-.851 1.853-2.554 0-1.706-.614-2.559-1.844-2.559-.616 0-1.08.216-1.394.648-.313.428-.47 1.065-.47 1.911zm11.248-3.777h1.394v3.657l-.02.98-.05 1.113h.03l3.373-5.75h1.854v7.573h-1.379V38.26a38 38 0 01.09-2.166h-.04l-3.388 5.802h-1.864v-7.573zm5.712-2.46c-.063.645-.298 1.116-.705 1.413-.406.294-.993.44-1.76.44-.788 0-1.373-.141-1.753-.424-.377-.283-.588-.76-.635-1.43h1.365c.023.356.108.606.254.751.15.142.417.213.8.213.337 0 .586-.078.75-.233.166-.16.268-.403.305-.73h1.379zm10.207 10.033l-1.759-5.941h-.045c.064 1.208.095 2.015.095 2.419v3.522h-1.384v-7.573h2.109l1.729 5.791h.03l1.834-5.791h2.11v7.573h-1.445v-3.584c0-.17.001-.365.005-.586.006-.22.03-.808.07-1.761h-.045l-1.884 5.931h-1.42zm15.436 0l-.53-1.802h-2.663l-.53 1.802h-1.67l2.58-7.604h1.893l2.589 7.604h-1.67zm-.9-3.15l-.83-2.77a8.983 8.983 0 01-.13-.508c-.11.442-.424 1.535-.944 3.279h1.904zm10.363 3.15h-1.549V35.66H82.24v-1.336h5.517v1.336h-1.984v6.237zm11.717 0h-4.208v-7.573h4.208v1.316h-2.658V37.3h2.473v1.316h-2.473v1.953h2.658v1.326zm7.479-4.009h.51c.477 0 .833-.097 1.07-.29.236-.197.354-.482.354-.855 0-.376-.099-.654-.299-.834-.197-.18-.506-.27-.93-.27h-.705v2.249zm3.499-1.202c0 .815-.247 1.438-.74 1.87-.49.432-1.188.648-2.094.648h-.665v2.693h-1.549v-7.573h2.334c.886 0 1.56.198 2.019.596.463.393.695.982.695 1.766zm5.78-2.362h1.394v3.657l-.02.98-.05 1.113h.03l3.374-5.75h1.853v7.573h-1.379V38.26c0-.487.03-1.209.09-2.166h-.04l-3.388 5.802h-1.864v-7.573zm17.299 7.573l-.529-1.802h-2.664l-.53 1.802h-1.669l2.579-7.604h1.894l2.588 7.604h-1.669zm-.899-3.15l-.83-2.77a9.248 9.248 0 01-.13-.508c-.11.442-.425 1.535-.944 3.279h1.904zm13.676 3.15h-1.544V35.66h-1.789l-.081.694c-.206 1.765-.389 3.003-.549 3.715-.156.708-.385 1.207-.684 1.497-.297.29-.709.435-1.235.435a2.19 2.19 0 01-.739-.114V40.57c.193.07.374.104.544.104.177 0 .317-.083.42-.249.103-.17.2-.48.29-.932.093-.456.214-1.2.365-2.233.153-1.036.283-2.015.389-2.937h4.613v7.573zm11.242-2.367c0 .787-.253 1.38-.759 1.777-.504.394-1.25.59-2.239.59h-1.999v-7.573h1.549v2.906h.5c.936 0 1.66.202 2.174.606.516.4.774.965.774 1.694zm-3.448 1.052h.405c.51 0 .883-.087 1.119-.26.237-.175.355-.44.355-.792 0-.352-.115-.604-.345-.756-.226-.152-.626-.228-1.199-.228h-.335v2.036zM158 41.896h-1.544v-7.573H158v7.573zM22.155 10.714v9.379h-6.449v-9.379l3.225-2.336 3.224 2.336zM25.232 0l-6.301 4.565L12.63 0 0 9.15v14.022h7.327v-3.08H3.105v-9.378l9.525-6.901 3.67 2.659-3.698 2.678v14.022H25.26V9.15l-3.697-2.678 3.67-2.66 9.525 6.902v9.379h-4.574v3.08h7.678V9.15L25.232 0zm25.552 23.145H46.6V1.448h16.172V4.74H50.784v18.406zm25.036-4.906c-.424 1.706-1.35 3.037-2.779 3.992-1.406.955-3.091 1.432-5.055 1.432-2.612 0-4.688-.762-6.228-2.285-1.518-1.544-2.277-3.515-2.277-5.912 0-2.458.781-4.49 2.344-6.095 1.585-1.605 3.594-2.407 6.027-2.407 2.522 0 4.52.792 5.992 2.377 1.474 1.564 2.21 3.708 2.21 6.43v.365H63.299c.044 1.585.48 2.814 1.306 3.688.826.853 1.975 1.28 3.448 1.28 1.05 0 1.898-.224 2.545-.67.67-.468 1.194-1.2 1.574-2.195h3.65zm-3.582-4.419c-.112-1.32-.57-2.356-1.373-3.108-.781-.772-1.797-1.158-3.047-1.158-1.25 0-2.266.366-3.046 1.097-.76.732-1.228 1.788-1.407 3.17h8.873zm10.368-6.399v2.103c1.16-1.707 3.035-2.56 5.624-2.56 2.389 0 4.297.762 5.725 2.285 1.429 1.524 2.144 3.556 2.144 6.095 0 2.479-.704 4.47-2.11 5.973-1.383 1.483-3.237 2.224-5.558 2.224-2.455 0-4.33-.822-5.625-2.468v7.893h-3.783V7.42h3.583zm4.854 2.347c-1.495 0-2.667.487-3.515 1.462-.848.975-1.273 2.326-1.273 4.053 0 1.707.425 3.048 1.273 4.023.87.975 2.064 1.462 3.583 1.462 1.45 0 2.6-.487 3.448-1.462.848-.976 1.272-2.296 1.272-3.962 0-1.706-.435-3.057-1.305-4.053-.849-1.016-2.01-1.523-3.483-1.523zm15.647 13.377h-3.683V7.421h5.022l4.821 12.494h.068l4.654-12.494h5.022v15.724h-3.683V12.693h-.067l-4.119 10.452h-3.85l-4.118-10.452h-.067v10.452zm35.36-4.906c-.424 1.706-1.351 3.037-2.779 3.992-1.406.955-3.092 1.432-5.056 1.432-2.612 0-4.687-.762-6.228-2.285-1.517-1.544-2.276-3.515-2.276-5.912 0-2.458.781-4.49 2.344-6.095 1.584-1.605 3.593-2.407 6.026-2.407 2.522 0 4.52.792 5.993 2.377 1.473 1.564 2.21 3.708 2.21 6.43v.365h-12.756c.044 1.585.48 2.814 1.305 3.688.826.853 1.976 1.28 3.449 1.28 1.049 0 1.897-.224 2.545-.67.669-.468 1.194-1.2 1.573-2.195h3.65zm-3.583-4.419c-.112-1.32-.569-2.356-1.372-3.108-.782-.772-1.797-1.158-3.047-1.158-1.25 0-2.266.366-3.047 1.097-.759.732-1.228 1.788-1.406 3.17h8.872zm22.388 3.383c-.268 1.93-1.116 3.474-2.545 4.632-1.428 1.137-3.225 1.706-5.39 1.706-2.589 0-4.654-.741-6.194-2.224-1.54-1.503-2.311-3.464-2.311-5.882 0-2.6.771-4.662 2.311-6.186 1.562-1.544 3.66-2.316 6.294-2.316 2.21 0 3.984.508 5.324 1.524 1.361 1.016 2.154 2.428 2.377 4.236h-3.783c-.224-.996-.67-1.757-1.34-2.286-.669-.528-1.517-.792-2.544-.792-1.474 0-2.634.508-3.482 1.524-.849.995-1.273 2.367-1.273 4.114 0 1.747.402 3.108 1.206 4.083.826.975 1.964 1.463 3.415 1.463 1.138 0 2.065-.305 2.779-.915.737-.63 1.205-1.523 1.406-2.681h3.75z"/></g><defs><clipPath id="clip0"><path fill="#fff" d="M0 0h158v42H0z"/></clipPath></defs></svg>